<svg width="36" height="41" viewBox="0 0 36 41" fill="none" xmlns="http://www.w3.org/2000/svg">
<path d="M25.6661 25.5959L18 33.0304L10.3339 25.5959C4.58839 25.8375 0 30.3964 0 36.0229V36.771C0 38.8361 1.72768 40.5116 3.85714 40.5116H32.1429C34.2723 40.5116 36 38.8361 36 36.771V36.0229C36 30.3964 31.4116 25.8375 25.6661 25.5959ZM1.09286 6.83057L1.60714 6.94746V11.4985C1.04464 11.8258 0.642857 12.3947 0.642857 13.0805C0.642857 13.7351 1.0125 14.2806 1.53482 14.6157L0.28125 19.4707C0.144643 20.0084 0.45 20.5617 0.891964 20.5617H4.25089C4.69286 20.5617 4.99821 20.0084 4.86161 19.4707L3.60804 14.6157C4.13036 14.2806 4.5 13.7351 4.5 13.0805C4.5 12.3947 4.09821 11.8258 3.53571 11.4985V7.39945L8.83929 8.63853C8.14821 9.97891 7.71429 11.4752 7.71429 13.0805C7.71429 18.5901 12.3188 23.0554 18 23.0554C23.6812 23.0554 28.2857 18.5901 28.2857 13.0805C28.2857 11.4752 27.8598 9.97891 27.1607 8.63853L34.8991 6.83057C36.3616 6.48768 36.3616 4.71868 34.8991 4.3758L19.5991 0.791049C18.5545 0.549468 17.4536 0.549468 16.4089 0.791049L1.09286 4.368C-0.361607 4.71089 -0.361607 6.48768 1.09286 6.83057Z" fill="#02182B"/>
</svg>
